<?xml version="1.0" standalone="no"?>
<!DOCTYPE svg PUBLIC "-//W3C//DTD SVG 20010904//EN"
 "http://www.w3.org/TR/2001/REC-SVG-20010904/DTD/svg10.dtd">
<svg version="1.0"
    xmlns="http://www.w3.org/2000/svg"
 width="28" height="28" viewBox="0 0 128.000000 128.000000"
 preserveAspectRatio="xMidYMid meet">
    <metadata>
Created by potrace 1.15, written by Peter Selinger 2001-2017
</metadata>
    <g transform="translate(0.000000,128.000000) scale(0.100000,-0.100000)"
fill="#000000" stroke="none">
        <path d="M555 1266 c-31 -14 -75 -57 -93 -91 -9 -17 -19 -20 -75 -17 -77 4
-122 -13 -167 -64 -40 -46 -55 -106 -42 -164 l11 -45 -48 -42 c-120 -105 -98
-293 42 -358 28 -14 59 -25 69 -25 9 0 25 -16 36 -35 34 -57 139 -84 207 -53
30 14 38 6 55 -51 13 -49 -12 -169 -54 -253 l-34 -68 180 0 c140 0 178 3 172
12 -4 7 -15 24 -24 38 -24 34 -56 142 -65 216 -5 48 -3 69 9 93 16 31 17 31
46 16 68 -35 176 -9 212 50 11 19 27 35 36 35 10 0 41 11 69 25 140 65 162
253 42 358 l-48 42 11 45 c13 58 -2 118 -42 164 -45 51 -90 68 -166 64 -62 -3
-65 -2 -83 27 -24 40 -60 71 -94 84 -39 15 -126 13 -162 -3z m330 -236 c4 -6
-25 -45 -65 -86 -84 -89 -152 -190 -200 -297 -19 -42 -37 -77 -40 -77 -3 0
-18 23 -34 52 -16 28 -53 79 -82 114 -45 53 -51 64 -38 74 11 10 24 9 62 -5
26 -10 53 -22 60 -28 9 -7 42 21 125 106 133 137 193 178 212 147z"/>
    </g>
</svg>
