<svg id="svg" version="1.1" width="400" height="400" xmlns="http://www.w3.org/2000/svg" xmlns:xlink="http://www.w3.org/1999/xlink" style="display: block;"><g id="svgg"><path id="path0" d="M98.800 75.000 L 98.800 126.400 212.600 126.400 L 326.400 126.400 326.400 75.000 L 326.400 23.600 212.600 23.600 L 98.800 23.600 98.800 75.000 M98.800 200.200 L 98.800 251.600 212.600 251.600 L 326.400 251.600 326.400 200.200 L 326.400 148.800 212.600 148.800 L 98.800 148.800 98.800 200.200 M98.800 325.000 L 98.800 376.400 212.600 376.400 L 326.400 376.400 326.400 325.000 L 326.400 273.600 212.600 273.600 L 98.800 273.600 98.800 325.000 " stroke="none" fill="#000000" fill-rule="evenodd"></path><path id="path1" d="M98.800 75.000 L 98.800 126.400 212.600 126.400 L 326.400 126.400 326.400 75.000 L 326.400 23.600 212.600 23.600 L 98.800 23.600 98.800 75.000 M98.800 200.200 L 98.800 251.600 212.600 251.600 L 326.400 251.600 326.400 200.200 L 326.400 148.800 212.600 148.800 L 98.800 148.800 98.800 200.200 M98.800 325.000 L 98.800 376.400 212.600 376.400 L 326.400 376.400 326.400 325.000 L 326.400 273.600 212.600 273.600 L 98.800 273.600 98.800 325.000 " stroke="none" fill="#424242" fill-rule="evenodd"></path></g></svg>