<?xml version="1.0" encoding="iso-8859-1"?>
<!-- Generator: Adobe Illustrator 16.0.0, SVG Export Plug-In . SVG Version: 6.00 Build 0)  -->
<!DOCTYPE svg PUBLIC "-//W3C//DTD SVG 1.1//EN" "http://www.w3.org/Graphics/SVG/1.1/DTD/svg11.dtd">
<svg version="1.1" id="Capa_1"
    xmlns="http://www.w3.org/2000/svg"
    xmlns:xlink="http://www.w3.org/1999/xlink" x="0px" y="0px"
	 width="459px" height="459px" viewBox="0 0 459 459" style="enable-background:new 0 0 459 459;" xml:space="preserve">
    <g>
        <g>
            <path d="M447.525,256.275L191.25,0h-153C17.212,0,0,17.212,0,38.25v153l38.25,38.25c19.125-11.475,42.075-19.125,66.938-19.125
			c68.85,0,124.312,55.463,124.312,124.312c0,24.862-7.65,47.812-19.125,66.938l45.9,45.9c15.3,15.3,40.162,15.3,53.55,0
			l137.7-137.7C462.825,294.525,462.825,271.575,447.525,256.275z M105.188,133.875c-15.3,0-28.688-13.388-28.688-28.688
			S89.888,76.5,105.188,76.5s28.688,13.388,28.688,28.688S120.487,133.875,105.188,133.875z" fill="#424242" />
            <path d="M105.188,229.5C47.812,229.5,0,277.312,0,334.688s47.812,105.188,105.188,105.188s105.188-47.812,105.188-105.188
			S162.562,229.5,105.188,229.5z M172.125,344.25H38.25v-19.125h133.875V344.25z" fill="#424242" />
        </g>
    </g>
    <g></g>
    <g></g>
    <g></g>
    <g></g>
    <g></g>
    <g></g>
    <g></g>
    <g></g>
    <g></g>
    <g></g>
    <g></g>
    <g></g>
    <g></g>
    <g></g>
    <g></g>
</svg>
