<svg
    xmlns="http://www.w3.org/2000/svg" width="16" height="16" viewBox="0 0 24 24">
    <path d="M10 24c-.2 0-.4-.1-.5-.1-.3-.2-.5-.6-.5-.9v-8.7L.2 1.6C0 1.3-.1.9.1.5.3.2.6 0 1 0h22c.4 0 .7.2.9.5.2.3.1.7-.1 1L15 14.3V21c0 .4-.2.7-.6.9l-4 2c-.1.1-.2.1-.4.1zM2.9 2l7.9 11.4c.1.2.2.4.2.6v7.4l2-1V14c0-.2.1-.4.2-.6L21.1 2H2.9z" style="fill: #C5C5C5;"></path>
    <metadata>
        <rdf:rdf
            xmlns:rdf="http://www.w3.org/1999/02/22-rdf-syntax-ns#"
            xmlns:rdfs="http://www.w3.org/2000/01/rdf-schema#"
            xmlns:dc="http://purl.org/dc/elements/1.1/">
            <rdf:description about="https://iconscout.com/legal#licenses" dc:title="filter" dc:description="filter" dc:publisher="Iconscout" dc:date="2017-09-14" dc:format="image/svg+xml" dc:language="en">
                <dc:creator>
                    <rdf:bag>
                        <rdf:li>Cosmin Negoita</rdf:li>
                    </rdf:bag>
                </dc:creator>
            </rdf:description>
        </rdf:rdf>
    </metadata>
</svg>