<svg width="16" height="16" viewBox="0 0 16 16" fill="none" xmlns="http://www.w3.org/2000/svg">
<path fill-rule="evenodd" clip-rule="evenodd" d="M2.77944 6.29462C3.40534 5.78088 4.19001 5.50006 4.99981 5.5C5.45941 5.49997 5.91451 5.59047 6.33921 5.76634C6.76391 5.94221 7.14971 6.2 7.47481 6.525C8.04741 7.09754 8.40371 7.8509 8.48311 8.65681C8.56251 9.46261 8.36011 10.271 7.91031 10.9443C7.46041 11.6176 6.79111 12.1141 6.01621 12.3492C5.24131 12.5843 4.40891 12.5435 3.6608 12.2337C2.91269 11.9238 2.29514 11.3642 1.91339 10.6501C1.53163 9.93601 1.40929 9.11161 1.56721 8.3174C1.72513 7.5232 2.15354 6.80836 2.77944 6.29462ZM2.49975 8.49999V9.49999H7.49981V8.49999H2.49975Z" fill="#C5C5C5"/>
<path d="M8.06156 12H12L15 8L12 4H2V5.93845M11 9C10.447 9 10 8.552 10 8C10 7.448 10.447 7 11 7C11.553 7 12 7.448 12 8C12 8.552 11.553 9 11 9Z" stroke="#C5C5C5" stroke-linejoin="bevel"/>
</svg>
