<svg width="16" height="16" viewBox="0 0 16 16" fill="none" xmlns="http://www.w3.org/2000/svg">
<path fill-rule="evenodd" clip-rule="evenodd" d="M2.41389 8.06759C2.86096 7.70063 3.42144 7.50004 3.99987 7.5C4.32815 7.49998 4.65323 7.56462 4.95658 7.69024C5.25994 7.81587 5.53551 8 5.76773 8.23214C6.17673 8.6411 6.43123 9.17922 6.48795 9.75486C6.54466 10.3304 6.40009 10.9079 6.0788 11.3888C5.75744 11.8697 5.27937 12.2244 4.72587 12.3923C4.17237 12.5602 3.57779 12.5311 3.04343 12.3098C2.50907 12.0884 2.06796 11.6887 1.79528 11.1787C1.52259 10.6686 1.43521 10.0797 1.54801 9.51243C1.66081 8.94515 1.96682 8.43455 2.41389 8.06759ZM2.21411 9.64286V10.3572H5.78559V9.64286H2.21411Z" fill="#C5C5C5"/>
<path d="M2 7.19723V4H12L15 8L12 12H6.80278M11 9C10.447 9 10 8.552 10 8C10 7.448 10.447 7 11 7C11.553 7 12 7.448 12 8C12 8.552 11.553 9 11 9Z" stroke="#C5C5C5" stroke-linejoin="bevel"/>
</svg>
