<svg id="svg" version="1.1" width="400" height="400" xmlns="http://www.w3.org/2000/svg" xmlns:xlink="http://www.w3.org/1999/xlink" style="display: block;"><g id="svgg"><path id="path0" d="M0.000 75.000 L 0.000 126.400 24.400 126.400 L 48.800 126.400 48.800 164.000 L 48.800 201.600 73.800 201.600 L 98.800 201.600 98.800 226.600 L 98.800 251.600 123.800 251.600 L 148.800 251.600 148.800 289.000 L 148.800 326.400 173.800 326.400 L 198.800 326.400 198.800 351.400 L 198.800 376.400 299.400 376.400 L 400.000 376.400 400.000 325.000 L 400.000 273.600 299.400 273.600 L 198.800 273.600 198.800 286.200 L 198.800 298.800 187.600 298.800 L 176.400 298.800 176.400 275.201 L 176.400 251.602 238.900 251.501 L 301.400 251.400 301.502 200.100 L 301.603 148.800 200.202 148.800 L 98.800 148.800 98.800 161.200 L 98.800 173.600 87.600 173.600 L 76.400 173.600 76.400 150.000 L 76.400 126.400 151.400 126.400 L 226.400 126.400 226.400 75.000 L 226.400 23.600 113.200 23.600 L 0.000 23.600 0.000 75.000 " stroke="none" fill="#ffffff" fill-rule="evenodd"></path><path id="path1" d="M0.000 75.000 L 0.000 126.400 24.400 126.400 L 48.800 126.400 48.800 164.000 L 48.800 201.600 73.800 201.600 L 98.800 201.600 98.800 226.600 L 98.800 251.600 123.800 251.600 L 148.800 251.600 148.800 289.000 L 148.800 326.400 173.800 326.400 L 198.800 326.400 198.800 351.400 L 198.800 376.400 299.400 376.400 L 400.000 376.400 400.000 325.000 L 400.000 273.600 299.400 273.600 L 198.800 273.600 198.800 286.200 L 198.800 298.800 187.600 298.800 L 176.400 298.800 176.400 275.201 L 176.400 251.602 238.900 251.501 L 301.400 251.400 301.502 200.100 L 301.603 148.800 200.202 148.800 L 98.800 148.800 98.800 161.200 L 98.800 173.600 87.600 173.600 L 76.400 173.600 76.400 150.000 L 76.400 126.400 151.400 126.400 L 226.400 126.400 226.400 75.000 L 226.400 23.600 113.200 23.600 L 0.000 23.600 0.000 75.000 " stroke="none" fill="#c5c5c5" fill-rule="evenodd"></path></g></svg>